<?xml version="1.0" encoding="UTF-8" standalone="no"?>
<!-- Created with Inkscape (http://www.inkscape.org/) -->

<svg
   xmlns:dc="http://purl.org/dc/elements/1.1/"
   xmlns:cc="http://creativecommons.org/ns#"
   xmlns:rdf="http://www.w3.org/1999/02/22-rdf-syntax-ns#"
   xmlns:svg="http://www.w3.org/2000/svg"
   xmlns="http://www.w3.org/2000/svg"
   xmlns:sodipodi="http://sodipodi.sourceforge.net/DTD/sodipodi-0.dtd"
   xmlns:inkscape="http://www.inkscape.org/namespaces/inkscape"
   width="280mm"
   height="80mm"
   viewBox="0 0 280 80"
   version="1.1"
   id="svg8"
   inkscape:version="0.92.4 (5da689c313, 2019-01-14)"
   sodipodi:docname="logo_green.svg">
  <defs
     id="defs2" />
  <sodipodi:namedview
     id="base"
     pagecolor="#ffffff"
     bordercolor="#666666"
     borderopacity="1.0"
     inkscape:pageopacity="0.0"
     inkscape:pageshadow="2"
     inkscape:zoom="1.979899"
     inkscape:cx="483.01432"
     inkscape:cy="360.05608"
     inkscape:document-units="mm"
     inkscape:current-layer="layer1"
     showgrid="false"
     inkscape:window-width="3840"
     inkscape:window-height="2066"
     inkscape:window-x="-11"
     inkscape:window-y="-11"
     inkscape:window-maximized="1" />
  <metadata
     id="metadata5">
    <rdf:RDF>
      <cc:Work
         rdf:about="">
        <dc:format>image/svg+xml</dc:format>
        <dc:type
           rdf:resource="http://purl.org/dc/dcmitype/StillImage" />
        <dc:title></dc:title>
      </cc:Work>
    </rdf:RDF>
  </metadata>
  <g
     inkscape:label="Layer 1"
     inkscape:groupmode="layer"
     id="layer1"
     transform="translate(0,-217)">
    <g
       transform="translate(-8.6600509,123.93303)"
       id="g887-1-4-2"
       style="fill:#2ca02c;fill-opacity:1;stroke:none">
      <path
         sodipodi:nodetypes="cczcczc"
         inkscape:connector-curvature="0"
         id="path826-5-6-2"
         d="m 51.99492,152.48299 6.840404,2.6967 c 0,0 1.99236,9.46655 12.315998,9.40555 10.323638,-0.061 12.381782,-9.5371 12.381782,-9.5371 l 6.314215,-2.5487 c 0,0 -1.547038,17.80302 -18.695997,17.80805 -17.148951,0.005 -19.156402,-17.8245 -19.156402,-17.8245 z"
         style="fill:#2ca02c;fill-opacity:1;stroke:none;stroke-width:0.18416455px;stroke-linecap:butt;stroke-linejoin:miter;stroke-opacity:1" />
      <path
         sodipodi:nodetypes="cczcczc"
         inkscape:connector-curvature="0"
         id="path828-9-2-6"
         d="m 56.319503,139.78879 5.031636,3.15711 c 0,0 4.415098,-4.91654 10.178385,-4.91654 5.763287,0 9.915283,5.04808 9.915283,5.04808 l 4.752107,-3.23932 c 0,0 -4.457711,-7.62968 -14.66739,-7.62968 -10.209687,0 -15.210021,7.58035 -15.210021,7.58035 z"
         style="fill:#2ca02c;fill-opacity:1;stroke:none;stroke-width:0.18416455px;stroke-linecap:butt;stroke-linejoin:miter;stroke-opacity:1" />
      <path
         sodipodi:nodetypes="czcczczc"
         inkscape:connector-curvature="0"
         id="path830-9-8-3"
         d="m 58.917535,125.25295 c 0,0 -3.09947,-1.43144 -4.801429,-3.55175 -1.701959,-2.12031 -2.137627,-4.80144 -2.137627,-4.80144 -8.239238,2.12707 -17.028276,2.83914 -25.19108,4.9001 -3.838855,1.01181 -5.937078,1.6864 -8.70671,3.03378 -2.76963,1.34738 -7.384503,4.90705 -7.037715,5.57427 0.447689,0.79762 14.070934,-2.44127 25.965088,-3.77304 11.894153,-1.33177 21.909473,-1.38192 21.909473,-1.38192 z"
         style="fill:#2ca02c;fill-opacity:1;stroke:none;stroke-width:0.18416455px;stroke-linecap:butt;stroke-linejoin:miter;stroke-opacity:1" />
      <path
         sodipodi:nodetypes="ccccczc"
         inkscape:connector-curvature="0"
         id="path832-7-2-4"
         d="m 233.94658,163.83246 h -5.02293 c 0,0 0.92451,6.52879 10.97603,6.54608 10.05152,0.0173 10.27838,-6.54608 10.27838,-6.54608 h -4.63921 c 0,0 -0.10451,3.34206 -5.63917,3.37186 -5.53466,0.0298 -5.9531,-3.37186 -5.9531,-3.37186 z"
         style="fill:#2ca02c;fill-opacity:1;stroke:none;stroke-width:0.18416455px;stroke-linecap:butt;stroke-linejoin:miter;stroke-opacity:1" />
      <path
         sodipodi:nodetypes="cczczcccczzsscczc"
         inkscape:connector-curvature="0"
         id="path834-5-9-1"
         d="m 183.84522,158.58862 -29.54457,0.29068 c 0,0 12.70537,-7.35322 15.62688,-16.97563 2.9215,-9.62241 3.58116,-20.37076 3.58116,-20.37076 0,0 37.21378,4.4573 65.25153,8.3948 28.03775,3.9375 45.96528,10.1206 46.25278,16.46403 0.21384,5.51718 -41.72268,1.58296 -41.72268,1.58296 0,0 13.83618,12.01306 12.74901,14.23677 -0.19923,0.38207 -32.69223,-0.2161 -32.69223,-0.2161 0,0 -2.01196,-10.25061 -7.74816,-14.02351 -5.7362,-3.77289 -19.999,-1.40942 -20.83536,-2.47623 -0.83635,-1.06681 0.53263,-5.33478 1.40209,-6.15695 1.08429,-1.0253 14.33306,0.46723 28.99162,1.66153 15.39167,1.25402 29.64525,3.27849 29.59789,0.5812 0.75207,-5.75842 -61.05043,-10.66324 -60.74022,-9.65783 0,0 0.59528,5.00677 -1.70517,13.4101 -2.30046,8.40331 -8.46457,13.25494 -8.46457,13.25494 z"
         style="fill:#2ca02c;fill-opacity:1;stroke:none;stroke-width:0.18416455px;stroke-linecap:butt;stroke-linejoin:miter;stroke-opacity:1" />
      <path
         sodipodi:nodetypes="czcczzccsczczzcc"
         inkscape:connector-curvature="0"
         id="path836-5-7-6"
         d="m 53.051476,140.27587 c 0,0 -1.293549,0.9412 -4.325293,2.41844 -3.031744,1.47725 -4.232279,1.76733 -4.232279,1.76733 0,0 11.216739,12.88011 34.369833,9.7668 15.665213,-2.25291 23.589953,-12.25521 22.603173,-20.6033 -0.98679,-8.3481 -9.568415,-9.27973 -15.161801,-10.72023 -5.593387,-1.4405 -13.795721,-2.80141 -13.138673,-7.23208 1.587222,-8.52343 38.578864,-9.4645 38.578864,-9.4645 0,0 3.11568,-2.63477 6.28387,-4.76024 3.1682,-2.125472 6.48194,-3.834665 6.18042,-4.634488 -2.05642,-1.849613 -17.22012,0.132083 -37.718447,4.488078 -20.498319,4.356 -32.097443,9.90865 -32.558336,15.35299 -0.668129,7.15435 12.78003,9.11996 20.233568,10.73833 7.453538,1.61837 14.000535,2.45406 15.53386,4.97641 1.533326,2.52234 0.299701,10.40451 -9.859814,12.83637 -18.858003,2.53051 -26.788945,-4.92991 -26.788945,-4.92991 z"
         style="fill:#2ca02c;fill-opacity:1;stroke:none;stroke-width:0.18416455px;stroke-linecap:butt;stroke-linejoin:miter;stroke-opacity:1" />
      <path
         sodipodi:nodetypes="cczcczcczzzzcczc"
         inkscape:connector-curvature="0"
         id="path838-9-9-3"
         d="m 117.98996,120.35285 52.52802,0.82217 c 0,0 0.65757,1.0789 0.59195,3.58463 -0.0656,2.50572 -0.69062,3.48597 -0.69062,3.48597 l -53.44061,-0.0987 c 0,0 -0.64699,6.80446 3.74906,12.43111 4.39606,5.62665 10.32638,7.43235 10.32638,7.43235 l 32.85364,-0.62484 c 0,0 -8.4397,11.15095 -25.09242,12.10224 -16.65273,0.95129 -30.01027,-11.71199 -33.28117,-25.12531 -3.2709,-13.41331 3.81658,-23.30675 11.77338,-30.15694 7.95679,-6.850194 21.60328,-7.972687 31.40664,-4.998748 9.80335,2.973938 11.67471,7.004818 11.67471,7.004818 l -23.185,-0.0328 c 0,0 -9.20467,0.0477 -13.94389,5.49206 -4.73923,5.4443 -5.27007,8.682 -5.27007,8.682 z"
         style="fill:#2ca02c;fill-opacity:1;stroke:none;stroke-width:0.18416455px;stroke-linecap:butt;stroke-linejoin:miter;stroke-opacity:1" />
    </g>
  </g>
</svg>
